<svg id="svg" version="1.1" xmlns="http://www.w3.org/2000/svg" xmlns:xlink="http://www.w3.org/1999/xlink" width="400" height="400.42598509052186" viewBox="0, 0, 400,400.42598509052186"><g id="svgg"><path id="path0" d="M199.586 0.938 C 199.468 1.061,195.868 1.357,191.586 1.595 C 179.128 2.290,164.652 4.182,156.800 6.143 C 145.547 8.953,136.194 11.914,127.800 15.325 C 117.902 19.347,117.033 19.715,116.531 20.093 C 116.273 20.287,113.303 21.807,109.931 23.470 C 106.559 25.133,103.710 26.627,103.600 26.789 C 103.490 26.952,101.875 27.947,100.010 29.001 C 80.578 39.987,55.469 62.306,43.086 79.600 C 41.747 81.470,40.100 83.658,39.426 84.462 C 36.107 88.420,28.005 101.820,23.742 110.400 C 22.048 113.810,20.558 116.690,20.431 116.800 C 20.106 117.082,18.646 120.568,16.412 126.400 C 15.358 129.150,14.041 132.480,13.486 133.800 C 12.435 136.295,9.929 144.773,8.401 151.000 C 7.915 152.980,7.359 154.960,7.166 155.400 C 6.028 157.987,3.695 173.315,2.812 184.000 C 1.308 202.210,2.950 229.197,6.385 242.747 C 9.586 255.369,12.273 264.704,13.590 267.777 C 14.033 268.809,15.380 272.207,16.583 275.327 C 17.787 278.447,20.218 283.929,21.986 287.508 C 23.754 291.087,25.200 294.106,25.200 294.216 C 25.200 294.326,25.669 295.159,26.242 296.066 C 26.815 296.974,28.281 299.446,29.499 301.558 C 42.916 324.824,65.899 349.792,86.591 363.585 C 88.347 364.755,90.507 366.243,91.391 366.892 C 104.718 376.663,133.530 389.018,154.200 393.823 C 155.740 394.181,157.360 394.561,157.800 394.668 C 158.240 394.774,159.117 394.937,159.750 395.029 C 160.382 395.121,161.552 395.364,162.350 395.570 C 180.685 400.300,219.063 399.761,243.206 394.433 C 261.665 390.360,286.155 380.965,298.400 373.259 C 301.757 371.147,306.440 368.400,306.684 368.400 C 306.804 368.400,308.094 367.526,309.551 366.459 C 311.008 365.391,313.590 363.589,315.290 362.454 C 331.683 351.503,351.994 331.003,363.694 313.600 C 364.803 311.950,366.030 310.240,366.419 309.800 C 367.045 309.093,369.511 305.011,373.911 297.400 C 386.415 275.768,395.610 247.147,398.199 221.800 C 398.536 218.500,398.982 214.270,399.189 212.400 C 399.693 207.864,399.705 191.908,399.209 187.400 C 398.991 185.420,398.523 181.010,398.170 177.600 C 397.282 169.030,394.309 153.434,392.146 146.000 C 389.674 137.505,386.439 128.051,384.789 124.504 C 384.355 123.572,384.000 122.701,384.000 122.570 C 384.000 122.054,376.317 106.293,374.069 102.200 C 368.950 92.876,355.990 74.196,352.145 70.600 C 351.674 70.160,350.300 68.630,349.091 67.200 C 341.759 58.530,326.657 44.865,317.166 38.315 C 315.162 36.932,312.720 35.208,311.739 34.486 C 299.440 25.423,274.421 13.846,257.000 9.157 C 253.700 8.269,250.730 7.437,250.400 7.310 C 250.070 7.182,249.620 7.050,249.400 7.016 C 249.180 6.982,248.730 6.841,248.400 6.704 C 244.580 5.108,224.935 2.341,212.200 1.605 C 208.240 1.376,203.830 1.082,202.400 0.952 C 200.970 0.822,199.704 0.816,199.586 0.938 M213.200 14.412 C 223.741 15.065,237.624 17.010,243.200 18.615 C 244.410 18.963,247.020 19.664,249.000 20.172 C 257.079 22.243,264.183 24.484,267.327 25.952 C 268.247 26.381,271.108 27.563,273.683 28.578 C 278.860 30.617,290.279 36.181,293.400 38.184 C 294.500 38.890,297.290 40.589,299.600 41.958 C 303.834 44.469,312.522 50.401,313.872 51.703 C 314.272 52.089,315.725 53.229,317.100 54.236 C 322.959 58.529,333.154 68.153,340.366 76.200 C 344.598 80.922,346.574 83.330,350.312 88.320 C 351.351 89.706,352.776 91.596,353.480 92.520 C 355.443 95.096,362.330 106.142,364.628 110.400 C 365.756 112.490,367.251 115.248,367.950 116.529 C 368.650 117.810,370.024 120.737,371.005 123.033 C 371.986 125.329,373.310 128.331,373.949 129.704 C 376.155 134.449,381.413 150.859,382.951 157.800 C 384.089 162.936,385.354 170.303,386.213 176.800 C 386.548 179.330,387.023 182.840,387.270 184.600 C 387.857 188.785,387.857 212.015,387.270 216.200 C 387.023 217.960,386.548 221.470,386.213 224.000 C 384.638 235.913,382.854 244.646,380.371 252.600 C 377.620 261.412,374.752 269.713,373.808 271.600 C 373.312 272.590,372.074 275.382,371.056 277.805 C 370.038 280.229,368.389 283.642,367.393 285.391 C 366.396 287.140,365.154 289.478,364.633 290.586 C 363.413 293.179,356.991 303.545,354.836 306.400 C 353.922 307.610,352.299 309.860,351.228 311.400 C 349.162 314.373,343.758 320.926,338.800 326.472 C 332.182 333.875,317.922 346.582,310.600 351.600 C 309.500 352.354,307.700 353.638,306.600 354.453 C 300.525 358.955,283.950 368.126,276.014 371.377 C 273.495 372.408,270.526 373.667,269.417 374.173 C 266.961 375.294,257.452 378.409,252.800 379.616 C 250.930 380.101,248.858 380.734,248.195 381.022 C 239.724 384.712,207.816 387.603,188.993 386.387 C 176.468 385.578,155.778 382.307,153.800 380.823 C 153.580 380.658,152.050 380.202,150.400 379.811 C 146.673 378.927,134.484 374.939,133.400 374.248 C 132.960 373.968,130.800 373.047,128.600 372.201 C 124.217 370.517,109.352 363.102,106.678 361.266 C 105.755 360.633,103.740 359.385,102.200 358.493 C 96.385 355.126,86.576 347.810,77.326 339.940 C 73.924 337.046,62.125 325.059,60.454 322.800 C 59.884 322.030,58.897 320.860,58.259 320.200 C 55.238 317.072,46.029 304.274,42.429 298.200 C 41.125 296.000,39.444 293.210,38.692 292.000 C 37.093 289.424,30.496 275.994,29.261 272.800 C 28.794 271.590,27.763 268.980,26.971 267.000 C 24.856 261.712,22.713 254.922,21.225 248.800 C 20.503 245.830,19.576 242.230,19.166 240.800 C 13.605 221.428,13.608 179.514,19.172 160.000 C 19.579 158.570,20.409 155.330,21.016 152.800 C 22.361 147.191,24.643 139.568,25.627 137.400 C 26.026 136.520,27.198 133.550,28.231 130.800 C 32.956 118.225,45.145 96.697,52.570 87.812 C 53.495 86.705,54.900 84.897,55.692 83.793 C 56.484 82.689,57.531 81.429,58.019 80.993 C 58.507 80.557,59.578 79.300,60.399 78.200 C 62.216 75.765,75.024 62.806,77.800 60.594 C 78.900 59.717,79.936 58.788,80.103 58.530 C 80.897 57.299,98.955 44.158,102.933 41.915 C 104.217 41.192,106.197 39.992,107.333 39.249 C 116.803 33.060,138.410 24.049,151.945 20.643 C 154.725 19.944,157.197 19.249,157.438 19.101 C 162.243 16.128,195.607 13.323,213.200 14.412 M208.114 110.577 C 196.010 113.338,188.171 125.892,191.015 137.959 C 192.493 144.231,191.997 143.655,221.158 172.898 L 247.782 199.595 221.705 225.698 C 193.492 253.939,194.632 252.731,192.849 256.241 C 183.069 275.487,203.897 296.298,223.339 286.706 C 226.884 284.957,294.337 218.505,298.677 212.486 C 303.365 205.985,304.024 196.714,300.331 189.200 C 298.834 186.154,230.006 116.638,225.460 113.581 C 221.004 110.584,213.659 109.312,208.114 110.577 M153.957 146.118 C 150.564 147.550,150.880 147.256,127.964 170.271 C 103.645 194.695,104.639 193.446,104.634 199.600 C 104.630 205.720,103.830 204.722,128.553 229.463 C 145.207 246.129,150.661 251.354,152.200 252.116 C 162.152 257.044,172.631 250.610,172.584 239.600 C 172.558 233.426,173.094 234.143,154.687 215.702 L 138.618 199.605 154.486 183.702 C 172.940 165.209,172.600 165.669,172.600 159.200 C 172.599 149.271,162.791 142.389,153.957 146.118 " stroke="none" fill="#04bd9c" fill-rule="evenodd"></path><path id="path1" d="M0.000 200.200 L 0.000 400.400 200.000 400.400 L 400.000 400.400 399.924 304.100 C 399.883 251.135,399.798 208.880,399.736 210.200 C 393.717 338.227,268.022 427.548,144.133 391.836 C 91.777 376.745,43.497 335.961,21.682 288.400 C 20.925 286.750,19.357 283.330,18.198 280.800 C 12.744 268.900,8.643 255.680,4.764 237.488 C 1.862 223.883,0.685 195.628,2.377 180.200 C 3.360 171.236,4.669 163.054,5.801 158.800 C 6.123 157.590,7.103 153.630,7.979 150.000 C 10.220 140.716,15.741 124.694,18.589 119.207 C 19.105 118.213,20.888 114.610,22.551 111.200 C 24.214 107.790,25.759 104.730,25.984 104.400 C 26.209 104.070,27.498 101.820,28.849 99.400 C 30.200 96.980,31.788 94.370,32.379 93.600 C 32.970 92.830,33.923 91.380,34.498 90.377 C 35.816 88.079,42.795 78.541,45.801 74.930 C 55.167 63.681,62.029 56.726,73.600 46.756 C 86.980 35.228,108.648 22.156,125.000 15.748 C 128.080 14.540,131.590 13.130,132.800 12.614 C 137.333 10.678,152.082 6.508,161.600 4.470 C 184.770 -0.492,222.327 -0.272,243.815 4.949 C 245.127 5.268,249.620 6.436,253.800 7.546 C 334.961 29.085,394.496 102.120,399.578 186.381 C 399.745 189.141,399.908 148.335,399.941 95.700 L 400.000 0.000 200.000 0.000 L 0.000 0.000 0.000 200.200 M191.200 14.645 C 162.368 17.189,145.412 21.494,121.512 32.336 C 117.001 34.383,105.789 40.674,100.433 44.163 C -9.375 115.710,-13.621 273.951,92.200 351.039 C 177.983 413.530,299.799 390.733,357.447 301.400 C 425.017 196.692,372.875 57.146,252.968 21.784 C 234.884 16.451,207.109 13.241,191.200 14.645 M217.800 110.200 C 225.012 111.709,222.890 109.844,262.800 149.748 C 297.777 184.720,298.640 185.620,300.326 188.872 C 303.862 195.689,303.933 202.820,300.534 210.000 C 299.023 213.193,231.300 281.883,226.152 285.445 C 208.957 297.341,185.151 280.261,190.980 260.211 C 192.704 254.280,192.030 255.047,220.732 226.301 L 247.389 199.603 220.734 172.901 C 191.814 143.931,192.497 144.715,190.931 138.690 C 186.653 122.230,201.262 106.739,217.800 110.200 M164.914 146.283 C 169.993 148.563,172.974 153.330,172.990 159.200 C 173.007 165.562,173.297 165.170,154.851 183.705 L 139.023 199.609 154.872 215.505 C 173.270 233.957,172.985 233.578,172.994 239.600 C 173.011 250.353,162.312 257.214,152.600 252.679 C 148.915 250.958,107.796 209.879,105.882 206.006 C 104.086 202.372,104.000 196.635,105.691 193.200 C 107.086 190.365,149.490 147.833,152.337 146.412 C 156.101 144.535,160.908 144.485,164.914 146.283 " stroke="none" fill="#04231f" fill-rule="evenodd"></path><path id="path2" d="M212.100 1.076 C 212.485 1.176,213.115 1.176,213.500 1.076 C 213.885 0.975,213.570 0.893,212.800 0.893 C 212.030 0.893,211.715 0.975,212.100 1.076 M245.200 5.600 C 246.568 6.038,247.619 6.038,246.600 5.600 C 246.160 5.411,245.440 5.262,245.000 5.268 C 244.357 5.277,244.396 5.343,245.200 5.600 M133.800 12.214 C 132.800 12.696,132.766 12.751,133.600 12.548 C 134.733 12.271,136.007 11.621,135.400 11.630 C 135.180 11.633,134.460 11.896,133.800 12.214 M190.105 14.687 C 190.714 14.779,191.614 14.777,192.105 14.682 C 192.597 14.587,192.100 14.511,191.000 14.514 C 189.900 14.517,189.497 14.595,190.105 14.687 M210.700 14.682 C 211.195 14.778,212.005 14.778,212.500 14.682 C 212.995 14.587,212.590 14.509,211.600 14.509 C 210.610 14.509,210.205 14.587,210.700 14.682 M184.700 15.082 C 185.195 15.178,186.005 15.178,186.500 15.082 C 186.995 14.987,186.590 14.909,185.600 14.909 C 184.610 14.909,184.205 14.987,184.700 15.082 M216.300 15.082 C 216.795 15.178,217.605 15.178,218.100 15.082 C 218.595 14.987,218.190 14.909,217.200 14.909 C 216.210 14.909,215.805 14.987,216.300 15.082 M180.705 15.483 C 181.202 15.579,181.922 15.575,182.305 15.475 C 182.687 15.375,182.280 15.296,181.400 15.301 C 180.520 15.305,180.207 15.387,180.705 15.483 M220.300 15.482 C 220.795 15.578,221.605 15.578,222.100 15.482 C 222.595 15.387,222.190 15.309,221.200 15.309 C 220.210 15.309,219.805 15.387,220.300 15.482 M177.300 15.876 C 177.685 15.976,178.315 15.976,178.700 15.876 C 179.085 15.775,178.770 15.693,178.000 15.693 C 177.230 15.693,176.915 15.775,177.300 15.876 M223.905 15.883 C 224.402 15.979,225.122 15.975,225.505 15.875 C 225.887 15.775,225.480 15.696,224.600 15.701 C 223.720 15.705,223.407 15.787,223.905 15.883 M226.900 16.276 C 227.285 16.376,227.915 16.376,228.300 16.276 C 228.685 16.175,228.370 16.093,227.600 16.093 C 226.830 16.093,226.515 16.175,226.900 16.276 M118.700 18.229 C 117.149 19.070,117.325 19.361,118.900 18.559 C 120.408 17.793,120.675 17.594,120.167 17.616 C 119.965 17.625,119.305 17.901,118.700 18.229 M282.433 17.749 C 282.845 18.117,285.200 19.200,285.200 19.021 C 285.200 18.790,282.982 17.600,282.553 17.600 C 282.396 17.600,282.342 17.667,282.433 17.749 M255.000 22.400 C 255.440 22.589,256.070 22.744,256.400 22.744 C 256.778 22.744,256.704 22.617,256.200 22.400 C 255.760 22.211,255.130 22.056,254.800 22.056 C 254.422 22.056,254.496 22.183,255.000 22.400 M105.700 24.796 C 104.985 25.232,104.400 25.675,104.400 25.781 C 104.400 25.886,105.030 25.601,105.800 25.147 C 106.570 24.693,107.200 24.249,107.200 24.160 C 107.200 23.905,107.074 23.958,105.700 24.796 M128.400 29.000 C 127.850 29.314,127.580 29.572,127.800 29.572 C 128.020 29.572,128.650 29.314,129.200 29.000 C 129.750 28.686,130.020 28.428,129.800 28.428 C 129.580 28.428,128.950 28.686,128.400 29.000 M275.200 29.800 C 275.750 30.114,276.380 30.372,276.600 30.372 C 276.820 30.372,276.550 30.114,276.000 29.800 C 275.450 29.486,274.820 29.228,274.600 29.228 C 274.380 29.228,274.650 29.486,275.200 29.800 M115.100 35.227 C 114.275 35.663,113.600 36.108,113.600 36.218 C 113.600 36.327,114.320 36.049,115.200 35.600 C 116.080 35.151,116.800 34.697,116.800 34.592 C 116.800 34.330,116.797 34.331,115.100 35.227 M287.200 35.384 C 287.200 35.494,287.920 35.951,288.800 36.400 C 289.680 36.849,290.400 37.126,290.400 37.016 C 290.400 36.906,289.680 36.449,288.800 36.000 C 287.920 35.551,287.200 35.274,287.200 35.384 M308.800 48.546 C 308.800 48.656,309.340 49.130,310.000 49.600 C 310.660 50.070,311.200 50.364,311.200 50.254 C 311.200 50.144,310.660 49.670,310.000 49.200 C 309.340 48.730,308.800 48.436,308.800 48.546 M333.800 51.200 C 334.659 52.080,335.452 52.800,335.562 52.800 C 335.672 52.800,335.059 52.080,334.200 51.200 C 333.341 50.320,332.548 49.600,332.438 49.600 C 332.328 49.600,332.941 50.320,333.800 51.200 M65.781 53.700 L 64.200 55.400 65.900 53.819 C 66.835 52.949,67.600 52.184,67.600 52.119 C 67.600 51.816,67.252 52.119,65.781 53.700 M341.000 58.000 C 343.633 60.640,345.877 62.800,345.987 62.800 C 346.097 62.800,344.033 60.640,341.400 58.000 C 338.767 55.360,336.523 53.200,336.413 53.200 C 336.303 53.200,338.367 55.360,341.000 58.000 M62.181 56.900 L 60.600 58.600 62.300 57.019 C 63.235 56.149,64.000 55.384,64.000 55.319 C 64.000 55.016,63.652 55.319,62.181 56.900 M325.000 61.600 C 325.859 62.480,326.652 63.200,326.762 63.200 C 326.872 63.200,326.259 62.480,325.400 61.600 C 324.541 60.720,323.748 60.000,323.638 60.000 C 323.528 60.000,324.141 60.720,325.000 61.600 M75.200 63.400 C 74.228 64.390,73.523 65.200,73.633 65.200 C 73.743 65.200,74.628 64.390,75.600 63.400 C 76.572 62.410,77.277 61.600,77.167 61.600 C 77.057 61.600,76.172 62.410,75.200 63.400 M54.175 65.300 L 53.000 66.600 54.300 65.425 C 55.512 64.330,55.784 64.000,55.475 64.000 C 55.406 64.000,54.821 64.585,54.175 65.300 M348.600 66.000 C 349.459 66.880,350.252 67.600,350.362 67.600 C 350.472 67.600,349.859 66.880,349.000 66.000 C 348.141 65.120,347.348 64.400,347.238 64.400 C 347.128 64.400,347.741 65.120,348.600 66.000 M333.400 69.600 C 335.812 72.020,337.876 74.000,337.986 74.000 C 338.096 74.000,336.212 72.020,333.800 69.600 C 331.388 67.180,329.324 65.200,329.214 65.200 C 329.104 65.200,330.988 67.180,333.400 69.600 M50.378 69.500 L 49.000 71.000 50.500 69.622 C 51.896 68.338,52.184 68.000,51.878 68.000 C 51.812 68.000,51.137 68.675,50.378 69.500 M63.578 75.100 L 62.200 76.600 63.700 75.222 C 65.096 73.938,65.384 73.600,65.078 73.600 C 65.012 73.600,64.337 74.275,63.578 75.100 M338.800 75.325 C 338.800 75.394,339.385 75.979,340.100 76.625 L 341.400 77.800 340.225 76.500 C 339.130 75.288,338.800 75.016,338.800 75.325 M60.575 78.500 L 59.400 79.800 60.700 78.625 C 61.912 77.530,62.184 77.200,61.875 77.200 C 61.806 77.200,61.221 77.785,60.575 78.500 M38.515 84.500 C 36.781 86.767,35.866 88.120,36.209 87.913 C 36.681 87.627,39.337 84.000,39.074 84.000 C 38.977 84.000,38.726 84.225,38.515 84.500 M211.900 109.889 C 212.615 109.978,213.785 109.978,214.500 109.889 C 215.215 109.801,214.630 109.728,213.200 109.728 C 211.770 109.728,211.185 109.801,211.900 109.889 M364.200 110.800 C 364.541 111.460,364.911 112.000,365.021 112.000 C 365.131 112.000,364.941 111.460,364.600 110.800 C 364.259 110.140,363.889 109.600,363.779 109.600 C 363.669 109.600,363.859 110.140,364.200 110.800 M35.400 115.600 C 34.843 116.700,34.477 117.600,34.587 117.600 C 34.697 117.600,35.243 116.700,35.800 115.600 C 36.357 114.500,36.723 113.600,36.613 113.600 C 36.503 113.600,35.957 114.500,35.400 115.600 M196.985 116.500 L 195.000 118.600 197.100 116.615 C 198.255 115.523,199.200 114.578,199.200 114.515 C 199.200 114.217,198.829 114.549,196.985 116.500 M370.428 123.000 C 370.428 123.220,370.686 123.850,371.000 124.400 C 371.314 124.950,371.572 125.220,371.572 125.000 C 371.572 124.780,371.314 124.150,371.000 123.600 C 370.686 123.050,370.428 122.780,370.428 123.000 M190.093 132.800 C 190.093 133.570,190.175 133.885,190.276 133.500 C 190.376 133.115,190.376 132.485,190.276 132.100 C 190.175 131.715,190.093 132.030,190.093 132.800 M12.044 135.644 C 11.798 136.351,11.666 137.000,11.752 137.085 C 11.838 137.171,12.109 136.662,12.356 135.956 C 12.602 135.249,12.734 134.600,12.648 134.515 C 12.562 134.429,12.291 134.938,12.044 135.644 M377.029 139.600 C 377.176 140.150,377.464 140.870,377.667 141.200 C 377.925 141.617,377.957 141.495,377.771 140.800 C 377.624 140.250,377.336 139.530,377.133 139.200 C 376.875 138.783,376.843 138.905,377.029 139.600 M157.900 145.082 C 158.395 145.178,159.205 145.178,159.700 145.082 C 160.195 144.987,159.790 144.909,158.800 144.909 C 157.810 144.909,157.405 144.987,157.900 145.082 M5.400 160.000 C 5.248 160.691,5.207 161.341,5.309 161.442 C 5.411 161.544,5.609 161.053,5.750 160.350 C 6.083 158.683,5.760 158.360,5.400 160.000 M153.998 184.300 L 138.600 199.800 154.100 184.402 C 168.506 170.091,169.780 168.800,169.498 168.800 C 169.442 168.800,162.467 175.775,153.998 184.300 M16.493 177.600 C 16.493 178.370,16.575 178.685,16.676 178.300 C 16.776 177.915,16.776 177.285,16.676 176.900 C 16.575 176.515,16.493 176.830,16.493 177.600 M16.101 181.000 C 16.105 181.880,16.187 182.193,16.283 181.695 C 16.379 181.198,16.375 180.478,16.275 180.095 C 16.175 179.713,16.096 180.120,16.101 181.000 M15.714 185.000 C 15.717 186.100,15.795 186.503,15.887 185.895 C 15.979 185.286,15.977 184.386,15.882 183.895 C 15.787 183.403,15.711 183.900,15.714 185.000 M386.901 188.600 C 386.905 189.480,386.987 189.793,387.083 189.295 C 387.179 188.798,387.175 188.078,387.075 187.695 C 386.975 187.313,386.896 187.720,386.901 188.600 M1.693 189.600 C 1.693 190.370,1.775 190.685,1.876 190.300 C 1.976 189.915,1.976 189.285,1.876 188.900 C 1.775 188.515,1.693 188.830,1.693 189.600 M15.337 191.400 C 15.339 193.160,15.409 193.830,15.493 192.889 C 15.578 191.949,15.577 190.509,15.491 189.689 C 15.405 188.870,15.336 189.640,15.337 191.400 M399.770 199.600 C 399.770 204.330,399.828 206.265,399.898 203.900 C 399.969 201.535,399.969 197.665,399.898 195.300 C 399.828 192.935,399.770 194.870,399.770 199.600 M387.357 200.400 C 387.357 203.370,387.420 204.585,387.497 203.100 C 387.574 201.615,387.574 199.185,387.497 197.700 C 387.420 196.215,387.357 197.430,387.357 200.400 M302.920 199.600 C 302.920 200.810,302.995 201.305,303.087 200.700 C 303.178 200.095,303.178 199.105,303.087 198.500 C 302.995 197.895,302.920 198.390,302.920 199.600 M15.334 209.600 C 15.334 211.250,15.405 211.925,15.491 211.100 C 15.578 210.275,15.578 208.925,15.491 208.100 C 15.405 207.275,15.334 207.950,15.334 209.600 M128.200 229.600 C 139.858 241.260,149.487 250.800,149.597 250.800 C 149.707 250.800,140.258 241.260,128.600 229.600 C 116.942 217.940,107.313 208.400,107.203 208.400 C 107.093 208.400,116.542 217.940,128.200 229.600 M1.693 211.600 C 1.693 212.370,1.775 212.685,1.876 212.300 C 1.976 211.915,1.976 211.285,1.876 210.900 C 1.775 210.515,1.693 210.830,1.693 211.600 M386.901 212.200 C 386.905 213.080,386.987 213.393,387.083 212.895 C 387.179 212.398,387.175 211.678,387.075 211.295 C 386.975 210.913,386.896 211.320,386.901 212.200 M295.389 216.500 L 292.600 219.400 295.500 216.611 C 298.194 214.020,298.583 213.600,298.289 213.600 C 298.228 213.600,296.923 214.905,295.389 216.500 M15.714 215.800 C 15.717 216.900,15.795 217.303,15.887 216.695 C 15.979 216.086,15.977 215.186,15.882 214.695 C 15.787 214.203,15.711 214.700,15.714 215.800 M16.109 220.000 C 16.109 220.990,16.187 221.395,16.282 220.900 C 16.378 220.405,16.378 219.595,16.282 219.100 C 16.187 218.605,16.109 219.010,16.109 220.000 M276.000 235.800 C 275.028 236.790,274.323 237.600,274.433 237.600 C 274.543 237.600,275.428 236.790,276.400 235.800 C 277.372 234.810,278.077 234.000,277.967 234.000 C 277.857 234.000,276.972 234.810,276.000 235.800 M261.600 250.200 C 260.628 251.190,259.923 252.000,260.033 252.000 C 260.143 252.000,261.028 251.190,262.000 250.200 C 262.972 249.210,263.677 248.400,263.567 248.400 C 263.457 248.400,262.572 249.210,261.600 250.200 M376.844 261.644 C 376.598 262.351,376.466 263.000,376.552 263.085 C 376.638 263.171,376.909 262.662,377.156 261.956 C 377.402 261.249,377.534 260.600,377.448 260.515 C 377.362 260.429,377.091 260.938,376.844 261.644 M243.200 268.600 C 242.228 269.590,241.523 270.400,241.633 270.400 C 241.743 270.400,242.628 269.590,243.600 268.600 C 244.572 267.610,245.277 266.800,245.167 266.800 C 245.057 266.800,244.172 267.610,243.200 268.600 M196.800 282.600 C 197.546 283.370,198.247 284.000,198.357 284.000 C 198.467 284.000,197.946 283.370,197.200 282.600 C 196.454 281.830,195.753 281.200,195.643 281.200 C 195.533 281.200,196.054 281.830,196.800 282.600 M228.981 282.900 L 227.400 284.600 229.100 283.019 C 230.681 281.548,230.984 281.200,230.681 281.200 C 230.616 281.200,229.851 281.965,228.981 282.900 M36.000 286.400 C 36.449 287.280,36.906 288.000,37.016 288.000 C 37.126 288.000,36.849 287.280,36.400 286.400 C 35.951 285.520,35.494 284.800,35.384 284.800 C 35.274 284.800,35.551 285.520,36.000 286.400 M363.800 290.800 C 363.459 291.460,363.269 292.000,363.379 292.000 C 363.489 292.000,363.859 291.460,364.200 290.800 C 364.541 290.140,364.731 289.600,364.621 289.600 C 364.511 289.600,364.141 290.140,363.800 290.800 M23.800 292.800 C 24.141 293.460,24.511 294.000,24.621 294.000 C 24.731 294.000,24.541 293.460,24.200 292.800 C 23.859 292.140,23.489 291.600,23.379 291.600 C 23.269 291.600,23.459 292.140,23.800 292.800 M356.185 303.300 C 355.568 304.235,355.320 304.789,355.632 304.531 C 356.233 304.034,357.764 301.600,357.476 301.600 C 357.383 301.600,356.802 302.365,356.185 303.300 M49.200 308.000 C 49.670 308.660,50.144 309.200,50.254 309.200 C 50.364 309.200,50.070 308.660,49.600 308.000 C 49.130 307.340,48.656 306.800,48.546 306.800 C 48.436 306.800,48.730 307.340,49.200 308.000 M62.800 325.000 C 63.546 325.770,64.247 326.400,64.357 326.400 C 64.467 326.400,63.946 325.770,63.200 325.000 C 62.454 324.230,61.753 323.600,61.643 323.600 C 61.533 323.600,62.054 324.230,62.800 325.000 M333.195 331.500 L 327.400 337.400 333.300 331.605 C 338.781 326.222,339.381 325.600,339.095 325.600 C 339.037 325.600,336.382 328.255,333.195 331.500 M69.200 331.800 C 70.395 333.010,71.463 334.000,71.573 334.000 C 71.683 334.000,70.795 333.010,69.600 331.800 C 68.405 330.590,67.337 329.600,67.227 329.600 C 67.117 329.600,68.005 330.590,69.200 331.800 M49.600 330.925 C 49.600 330.994,50.185 331.579,50.900 332.225 L 52.200 333.400 51.025 332.100 C 49.930 330.888,49.600 330.616,49.600 330.925 M349.775 332.100 L 348.600 333.400 349.900 332.225 C 350.615 331.579,351.200 330.994,351.200 330.925 C 351.200 330.616,350.870 330.888,349.775 332.100 M343.988 338.300 L 341.400 341.000 344.100 338.412 C 345.585 336.988,346.800 335.773,346.800 335.712 C 346.800 335.417,346.393 335.792,343.988 338.300 M75.983 338.100 C 76.964 339.145,77.819 340.000,77.883 340.000 C 78.184 340.000,77.866 339.641,76.100 337.983 L 74.200 336.200 75.983 338.100 M324.575 339.700 L 323.400 341.000 324.700 339.825 C 325.415 339.179,326.000 338.594,326.000 338.525 C 326.000 338.216,325.670 338.488,324.575 339.700 M336.581 345.700 L 335.000 347.400 336.700 345.819 C 338.281 344.348,338.584 344.000,338.281 344.000 C 338.216 344.000,337.451 344.765,336.581 345.700 M64.800 346.525 C 64.800 346.594,65.385 347.179,66.100 347.825 L 67.400 349.000 66.225 347.700 C 65.130 346.488,64.800 346.216,64.800 346.525 M332.175 349.700 L 331.000 351.000 332.300 349.825 C 333.015 349.179,333.600 348.594,333.600 348.525 C 333.600 348.216,333.270 348.488,332.175 349.700 M311.000 350.635 L 309.800 351.666 311.100 350.806 C 311.815 350.333,312.400 349.868,312.400 349.773 C 312.400 349.473,312.231 349.578,311.000 350.635 M112.000 363.779 C 112.000 363.889,112.540 364.259,113.200 364.600 C 113.860 364.941,114.400 365.131,114.400 365.021 C 114.400 364.911,113.860 364.541,113.200 364.200 C 112.540 363.859,112.000 363.669,112.000 363.779 M286.300 365.829 C 284.805 366.640,284.896 366.978,286.400 366.200 C 287.060 365.859,287.600 365.494,287.600 365.390 C 287.600 365.132,287.557 365.147,286.300 365.829 M277.200 370.200 C 276.650 370.514,276.380 370.772,276.600 370.772 C 276.820 370.772,277.450 370.514,278.000 370.200 C 278.550 369.886,278.820 369.628,278.600 369.628 C 278.380 369.628,277.750 369.886,277.200 370.200 M258.400 377.400 C 257.630 377.697,257.270 377.945,257.600 377.952 C 257.930 377.958,258.740 377.717,259.400 377.414 C 260.945 376.707,260.226 376.697,258.400 377.400 M183.700 385.876 C 184.085 385.976,184.715 385.976,185.100 385.876 C 185.485 385.775,185.170 385.693,184.400 385.693 C 183.630 385.693,183.315 385.775,183.700 385.876 M189.105 386.283 C 189.602 386.379,190.322 386.375,190.705 386.275 C 191.087 386.175,190.680 386.096,189.800 386.101 C 188.920 386.105,188.607 386.187,189.105 386.283 M211.900 386.282 C 212.395 386.378,213.205 386.378,213.700 386.282 C 214.195 386.187,213.790 386.109,212.800 386.109 C 211.810 386.109,211.405 386.187,211.900 386.282 M200.100 386.687 C 200.705 386.778,201.695 386.778,202.300 386.687 C 202.905 386.595,202.410 386.520,201.200 386.520 C 199.990 386.520,199.495 386.595,200.100 386.687 M182.900 399.076 C 183.285 399.176,183.915 399.176,184.300 399.076 C 184.685 398.975,184.370 398.893,183.600 398.893 C 182.830 398.893,182.515 398.975,182.900 399.076 M215.905 399.083 C 216.402 399.179,217.122 399.175,217.505 399.075 C 217.887 398.975,217.480 398.896,216.600 398.901 C 215.720 398.905,215.407 398.987,215.905 399.083 M189.682 399.496 C 191.158 399.573,193.678 399.573,195.282 399.497 C 196.887 399.421,195.680 399.358,192.600 399.358 C 189.520 399.357,188.207 399.419,189.682 399.496 M204.500 399.497 C 205.985 399.574,208.415 399.574,209.900 399.497 C 211.385 399.420,210.170 399.357,207.200 399.357 C 204.230 399.357,203.015 399.420,204.500 399.497 " stroke="none" fill="#046a5a" fill-rule="evenodd"></path><path id="path3" d="M198.291 14.289 C 199.001 14.377,200.261 14.379,201.091 14.292 C 201.921 14.205,201.340 14.133,199.800 14.131 C 198.260 14.129,197.581 14.200,198.291 14.289 M203.505 14.283 C 204.002 14.379,204.722 14.375,205.105 14.275 C 205.487 14.175,205.080 14.096,204.200 14.101 C 203.320 14.105,203.007 14.187,203.505 14.283 M56.981 62.500 L 55.400 64.200 57.100 62.619 C 58.035 61.749,58.800 60.984,58.800 60.919 C 58.800 60.616,58.452 60.919,56.981 62.500 M67.775 70.500 L 66.600 71.800 67.900 70.625 C 69.112 69.530,69.384 69.200,69.075 69.200 C 69.006 69.200,68.421 69.785,67.775 70.500 M243.400 130.800 C 244.483 131.900,245.460 132.800,245.570 132.800 C 245.680 132.800,244.883 131.900,243.800 130.800 C 242.717 129.700,241.740 128.800,241.630 128.800 C 241.520 128.800,242.317 129.700,243.400 130.800 M248.783 136.100 C 249.764 137.145,250.619 138.000,250.683 138.000 C 250.984 138.000,250.666 137.641,248.900 135.983 L 247.000 134.200 248.783 136.100 M262.400 149.800 C 263.595 151.010,264.663 152.000,264.773 152.000 C 264.883 152.000,263.995 151.010,262.800 149.800 C 261.605 148.590,260.537 147.600,260.427 147.600 C 260.317 147.600,261.205 148.590,262.400 149.800 M200.000 152.125 C 200.000 152.194,200.585 152.779,201.300 153.425 L 202.600 154.600 201.425 153.300 C 200.330 152.088,200.000 151.816,200.000 152.125 M206.000 158.125 C 206.000 158.194,206.585 158.779,207.300 159.425 L 208.600 160.600 207.425 159.300 C 206.330 158.088,206.000 157.816,206.000 158.125 M135.578 162.300 L 134.200 163.800 135.700 162.422 C 136.525 161.663,137.200 160.988,137.200 160.922 C 137.200 160.616,136.862 160.904,135.578 162.300 M276.383 163.700 C 277.364 164.745,278.219 165.600,278.283 165.600 C 278.584 165.600,278.266 165.241,276.500 163.583 L 274.600 161.800 276.383 163.700 M220.400 172.600 C 221.146 173.370,221.847 174.000,221.957 174.000 C 222.067 174.000,221.546 173.370,220.800 172.600 C 220.054 171.830,219.353 171.200,219.243 171.200 C 219.133 171.200,219.654 171.830,220.400 172.600 M122.378 175.500 L 121.000 177.000 122.500 175.622 C 123.325 174.863,124.000 174.188,124.000 174.122 C 124.000 173.816,123.662 174.104,122.378 175.500 M115.978 181.900 L 114.600 183.400 116.100 182.022 C 116.925 181.263,117.600 180.588,117.600 180.522 C 117.600 180.216,117.262 180.504,115.978 181.900 M294.600 182.000 C 295.459 182.880,296.252 183.600,296.362 183.600 C 296.472 183.600,295.859 182.880,295.000 182.000 C 294.141 181.120,293.348 180.400,293.238 180.400 C 293.128 180.400,293.741 181.120,294.600 182.000 M233.600 185.800 C 234.346 186.570,235.047 187.200,235.157 187.200 C 235.267 187.200,234.746 186.570,234.000 185.800 C 233.254 185.030,232.553 184.400,232.443 184.400 C 232.333 184.400,232.854 185.030,233.600 185.800 M240.000 192.200 C 240.746 192.970,241.447 193.600,241.557 193.600 C 241.667 193.600,241.146 192.970,240.400 192.200 C 239.654 191.430,238.953 190.800,238.843 190.800 C 238.733 190.800,239.254 191.430,240.000 192.200 M14.920 200.400 C 14.920 201.610,14.995 202.105,15.087 201.500 C 15.178 200.895,15.178 199.905,15.087 199.300 C 14.995 198.695,14.920 199.190,14.920 200.400 M290.981 220.900 L 289.400 222.600 291.100 221.019 C 292.681 219.548,292.984 219.200,292.681 219.200 C 292.616 219.200,291.851 219.965,290.981 220.900 M285.186 226.700 L 283.000 229.000 285.300 226.814 C 287.437 224.782,287.783 224.400,287.486 224.400 C 287.424 224.400,286.389 225.435,285.186 226.700 M279.381 232.500 L 277.800 234.200 279.500 232.619 C 280.435 231.749,281.200 230.984,281.200 230.919 C 281.200 230.616,280.852 230.919,279.381 232.500 M271.986 239.900 L 269.800 242.200 272.100 240.014 C 274.237 237.982,274.583 237.600,274.286 237.600 C 274.224 237.600,273.189 238.635,271.986 239.900 M265.586 246.300 L 263.400 248.600 265.700 246.414 C 267.837 244.382,268.183 244.000,267.886 244.000 C 267.824 244.000,266.789 245.035,265.586 246.300 M258.181 253.700 L 256.600 255.400 258.300 253.819 C 259.881 252.348,260.184 252.000,259.881 252.000 C 259.816 252.000,259.051 252.765,258.181 253.700 M252.386 259.500 L 250.200 261.800 252.500 259.614 C 254.637 257.582,254.983 257.200,254.686 257.200 C 254.624 257.200,253.589 258.235,252.386 259.500 M235.994 275.900 L 230.600 281.400 236.100 276.006 C 241.209 270.994,241.781 270.400,241.494 270.400 C 241.436 270.400,238.961 272.875,235.994 275.900 M72.800 335.400 C 73.546 336.170,74.247 336.800,74.357 336.800 C 74.467 336.800,73.946 336.170,73.200 335.400 C 72.454 334.630,71.753 334.000,71.643 334.000 C 71.533 334.000,72.054 334.630,72.800 335.400 M196.505 386.687 C 197.114 386.779,198.014 386.777,198.505 386.682 C 198.997 386.587,198.500 386.511,197.400 386.514 C 196.300 386.517,195.897 386.595,196.505 386.687 M204.105 386.687 C 204.714 386.779,205.614 386.777,206.105 386.682 C 206.597 386.587,206.100 386.511,205.000 386.514 C 203.900 386.517,203.497 386.595,204.105 386.687 " stroke="none" fill="#047c6c" fill-rule="evenodd"></path><path id="path4" d="M188.098 1.238 C 180.010 1.726,162.384 4.118,162.920 4.654 C 163.010 4.743,165.314 4.455,168.041 4.013 C 175.127 2.864,182.637 2.093,191.586 1.595 C 195.868 1.356,199.453 1.080,199.553 0.981 C 199.801 0.733,194.477 0.852,188.098 1.238 M203.628 0.942 C 203.754 1.078,207.354 1.377,211.628 1.606 C 220.298 2.070,231.136 3.249,237.521 4.422 C 241.814 5.211,243.632 5.228,240.128 4.447 C 237.002 3.750,224.971 2.069,220.000 1.634 C 213.613 1.077,203.353 0.643,203.628 0.942 M149.400 7.639 C 143.391 9.250,136.328 11.499,135.600 12.034 C 135.115 12.391,135.154 12.418,135.800 12.178 C 136.240 12.014,139.930 10.923,144.000 9.753 C 148.070 8.584,152.210 7.368,153.200 7.052 C 156.342 6.048,153.968 6.415,149.400 7.639 M250.200 7.092 C 250.420 7.302,252.580 7.978,255.000 8.594 C 257.420 9.211,261.014 10.220,262.986 10.838 C 264.958 11.456,266.639 11.894,266.721 11.812 C 266.932 11.602,258.869 9.032,254.800 8.012 C 252.930 7.544,251.040 7.059,250.600 6.935 C 250.085 6.790,249.942 6.846,250.200 7.092 M128.000 14.748 C 124.657 16.049,118.012 19.118,119.600 18.628 C 120.712 18.285,132.149 13.585,132.342 13.391 C 132.750 12.984,131.659 13.324,128.000 14.748 M271.636 13.753 C 271.840 13.971,281.923 18.101,283.600 18.653 C 285.400 19.246,281.480 17.374,277.744 15.856 C 273.168 13.996,271.244 13.334,271.636 13.753 M194.100 14.287 C 194.705 14.378,195.695 14.378,196.300 14.287 C 196.905 14.195,196.410 14.120,195.200 14.120 C 193.990 14.120,193.495 14.195,194.100 14.287 M206.505 14.287 C 207.114 14.379,208.014 14.377,208.505 14.282 C 208.997 14.187,208.500 14.111,207.400 14.114 C 206.300 14.117,205.897 14.195,206.505 14.287 M186.500 14.676 C 186.885 14.776,187.515 14.776,187.900 14.676 C 188.285 14.575,187.970 14.493,187.200 14.493 C 186.430 14.493,186.115 14.575,186.500 14.676 M161.400 18.067 C 159.420 18.506,157.659 19.001,157.486 19.167 C 157.235 19.407,163.179 18.213,165.971 17.462 C 167.976 16.923,164.468 17.387,161.400 18.067 M241.000 18.423 C 242.760 18.836,244.380 19.119,244.600 19.053 C 245.090 18.906,239.361 17.586,238.451 17.636 C 238.093 17.656,239.240 18.010,241.000 18.423 M111.400 22.237 C 108.540 23.675,106.020 25.043,105.800 25.276 C 105.285 25.822,105.192 25.863,111.301 22.842 C 114.107 21.454,116.503 20.157,116.625 19.960 C 116.946 19.439,117.066 19.388,111.400 22.237 M286.000 19.792 C 286.000 19.903,288.921 21.441,292.491 23.209 C 299.851 26.853,300.528 26.878,293.600 23.250 C 288.731 20.700,286.000 19.457,286.000 19.792 M257.245 22.579 C 257.344 22.677,259.736 23.563,262.561 24.548 C 265.387 25.533,267.541 26.186,267.349 26.000 C 267.035 25.695,257.827 22.400,257.289 22.400 C 257.167 22.400,257.147 22.480,257.245 22.579 M136.872 25.259 C 135.701 25.709,134.812 26.145,134.896 26.229 C 135.046 26.379,139.244 24.883,139.567 24.565 C 139.920 24.215,138.915 24.474,136.872 25.259 M99.999 28.470 C 95.560 31.089,85.334 37.860,84.998 38.403 C 84.672 38.930,85.768 38.248,91.811 34.163 C 94.445 32.382,98.130 30.064,100.000 29.011 C 103.782 26.881,103.801 26.868,103.566 26.633 C 103.474 26.540,101.869 27.367,99.999 28.470 M299.200 26.531 C 299.200 26.725,299.524 26.930,304.900 30.137 C 308.424 32.239,309.058 32.329,305.900 30.280 C 303.181 28.515,299.200 26.287,299.200 26.531 M123.300 30.811 C 121.485 31.663,120.000 32.455,120.000 32.570 C 120.000 32.776,125.240 30.480,126.672 29.648 C 128.302 28.700,126.393 29.358,123.300 30.811 M277.233 30.153 C 277.641 30.526,282.400 32.791,282.400 32.612 C 282.400 32.387,277.779 30.000,277.345 30.000 C 277.192 30.000,277.142 30.069,277.233 30.153 M310.557 33.530 C 310.708 33.775,312.490 35.089,314.516 36.449 C 323.311 42.355,334.293 51.680,342.925 60.570 C 344.863 62.566,346.271 63.831,346.053 63.380 C 345.472 62.177,335.360 52.462,329.590 47.564 C 322.510 41.553,309.660 32.079,310.557 33.530 M114.700 35.029 C 113.149 35.870,113.325 36.161,114.900 35.359 C 116.408 34.593,116.675 34.394,116.167 34.416 C 115.965 34.425,115.305 34.701,114.700 35.029 M288.065 35.363 C 288.210 35.528,289.740 36.466,291.465 37.448 C 293.189 38.430,294.330 38.971,294.000 38.651 C 293.367 38.037,287.610 34.847,288.065 35.363 M110.328 37.412 C 109.298 37.949,108.329 38.592,108.174 38.842 C 107.910 39.270,111.362 37.453,112.180 36.734 C 112.784 36.203,112.333 36.368,110.328 37.412 M83.000 39.698 C 72.668 47.213,61.270 57.728,51.455 68.800 C 45.880 75.089,37.489 85.900,39.304 84.457 C 39.679 84.158,41.230 82.178,42.749 80.057 C 50.911 68.663,68.287 51.198,80.260 42.356 C 82.273 40.869,84.039 39.460,84.184 39.226 C 84.553 38.629,84.370 38.702,83.000 39.698 M99.634 43.994 C 96.975 45.750,94.800 47.278,94.800 47.388 C 94.800 47.554,104.246 41.463,104.767 40.961 C 105.530 40.225,103.712 41.300,99.634 43.994 M300.400 42.529 C 300.400 42.614,301.705 43.530,303.300 44.565 C 304.895 45.601,305.609 45.942,304.886 45.324 C 303.595 44.219,300.400 42.229,300.400 42.529 M308.800 48.137 C 308.800 48.240,309.742 49.017,310.894 49.862 C 313.563 51.822,314.172 52.202,313.876 51.724 C 313.589 51.259,308.800 47.875,308.800 48.137 M89.538 50.986 C 88.515 51.737,87.543 52.569,87.379 52.834 C 87.215 53.099,88.098 52.548,89.341 51.610 C 91.294 50.135,91.904 49.570,91.500 49.610 C 91.445 49.615,90.562 50.235,89.538 50.986 M315.400 53.072 C 316.255 53.998,323.367 59.718,322.814 59.035 C 322.492 58.637,320.872 57.219,319.214 55.885 C 315.903 53.219,314.753 52.371,315.400 53.072 M82.300 56.635 C 80.034 58.438,79.330 59.222,80.700 58.417 C 81.543 57.922,85.084 54.801,84.800 54.804 C 84.690 54.805,83.565 55.629,82.300 56.635 M76.494 61.744 C 74.904 63.143,73.209 64.808,72.727 65.444 C 72.246 66.080,73.370 65.169,75.226 63.421 C 77.082 61.673,78.864 60.008,79.186 59.721 C 79.508 59.434,79.684 59.200,79.578 59.200 C 79.472 59.200,78.084 60.345,76.494 61.744 M324.800 60.850 C 325.570 61.618,329.080 65.022,332.600 68.413 C 337.159 72.806,337.792 73.338,334.800 70.261 C 332.490 67.886,328.980 64.483,327.000 62.698 C 325.020 60.913,324.030 60.082,324.800 60.850 M348.863 66.755 C 351.433 69.944,352.894 71.511,352.446 70.600 C 352.230 70.160,350.944 68.630,349.590 67.200 C 347.276 64.758,347.232 64.731,348.863 66.755 M68.987 68.900 L 66.600 71.400 69.100 69.013 C 70.475 67.699,71.600 66.574,71.600 66.513 C 71.600 66.217,71.205 66.578,68.987 68.900 M63.766 74.500 C 62.218 76.095,60.702 77.760,60.398 78.200 C 59.905 78.912,59.910 78.934,60.445 78.400 C 62.479 76.368,66.906 71.600,66.758 71.600 C 66.660 71.600,65.314 72.905,63.766 74.500 M357.478 77.109 C 363.454 84.976,370.329 95.370,374.072 102.200 C 376.331 106.321,384.000 122.057,384.000 122.570 C 384.000 122.701,384.355 123.572,384.789 124.504 C 386.372 127.908,389.963 138.338,391.813 144.909 C 392.419 147.060,392.992 148.741,393.087 148.646 C 393.788 147.945,386.978 128.124,382.914 119.039 C 375.661 102.824,363.779 83.340,355.814 74.600 C 355.012 73.720,355.761 74.849,357.478 77.109 M341.864 78.311 C 343.369 80.023,345.200 82.138,345.934 83.011 C 346.744 83.975,346.957 84.128,346.476 83.400 C 345.537 81.980,339.632 75.200,339.333 75.200 C 339.220 75.200,340.358 76.600,341.864 78.311 M57.740 81.300 C 56.510 82.614,53.876 86.140,54.677 85.400 C 55.322 84.804,59.251 80.000,59.093 80.000 C 59.018 80.000,58.409 80.585,57.740 81.300 M349.572 87.800 C 352.287 91.245,352.714 91.733,352.194 90.800 C 351.570 89.682,348.483 85.767,347.764 85.182 C 347.371 84.862,348.185 86.040,349.572 87.800 M33.869 91.900 C 29.697 98.242,25.742 105.114,26.905 104.000 C 27.249 103.670,28.207 102.140,29.034 100.600 C 29.860 99.060,32.188 95.280,34.207 92.200 C 38.401 85.803,38.525 85.600,38.230 85.600 C 38.111 85.600,36.149 88.435,33.869 91.900 M51.735 88.900 C 50.710 90.048,49.090 92.400,49.325 92.400 C 49.423 92.400,50.251 91.410,51.165 90.200 C 52.879 87.930,53.146 87.322,51.735 88.900 M47.687 94.500 C 46.227 96.656,45.912 97.200,46.120 97.200 C 46.212 97.200,46.944 96.210,47.747 95.000 C 48.551 93.790,49.125 92.800,49.023 92.800 C 48.922 92.800,48.320 93.565,47.687 94.500 M355.034 95.200 C 356.875 97.892,357.574 98.658,356.557 96.870 C 356.141 96.138,355.289 94.968,354.664 94.270 C 353.820 93.326,353.915 93.565,355.034 95.200 M44.076 99.900 C 42.576 102.120,41.253 104.417,41.717 103.996 C 42.140 103.612,45.984 97.600,45.807 97.600 C 45.709 97.600,44.930 98.635,44.076 99.900 M360.886 104.400 C 361.206 104.950,361.965 106.255,362.572 107.300 C 363.179 108.345,363.759 109.200,363.861 109.200 C 364.132 109.200,361.926 105.351,361.053 104.299 L 360.305 103.400 360.886 104.400 M24.056 108.500 C 22.036 112.160,19.945 116.801,20.317 116.797 C 20.473 116.796,21.800 114.276,23.268 111.197 C 26.221 105.002,26.484 104.099,24.056 108.500 M37.669 110.700 C 35.738 114.030,34.798 115.861,34.806 116.280 C 34.809 116.456,35.545 115.250,36.441 113.600 C 37.337 111.950,38.429 110.015,38.868 109.300 C 39.306 108.585,39.569 108.000,39.450 108.000 C 39.332 108.000,38.531 109.215,37.669 110.700 M367.698 116.700 C 368.307 118.093,369.597 120.286,369.599 119.933 C 369.601 119.543,367.589 115.600,367.388 115.600 C 367.294 115.600,367.434 116.095,367.698 116.700 M235.400 122.800 C 238.694 126.100,241.480 128.800,241.590 128.800 C 241.700 128.800,239.094 126.100,235.800 122.800 C 232.506 119.500,229.720 116.800,229.610 116.800 C 229.500 116.800,232.106 119.500,235.400 122.800 M18.865 119.417 C 18.195 120.888,18.323 121.202,19.047 119.865 C 19.386 119.240,19.588 118.654,19.496 118.563 C 19.405 118.471,19.121 118.856,18.865 119.417 M31.224 123.412 C 29.589 127.018,29.705 127.252,31.446 123.859 C 32.219 122.352,32.761 121.028,32.650 120.916 C 32.538 120.805,31.896 121.928,31.224 123.412 M17.613 121.977 C 17.165 122.812,13.883 131.549,13.396 133.200 C 12.680 135.625,13.763 133.309,15.563 128.565 C 16.641 125.724,17.716 122.905,17.951 122.300 C 18.445 121.035,18.227 120.828,17.613 121.977 M373.494 129.400 C 373.709 129.840,374.381 131.515,374.986 133.123 C 375.592 134.731,376.155 135.979,376.237 135.896 C 376.459 135.674,374.018 129.465,373.526 129.000 C 373.229 128.720,373.219 128.839,373.494 129.400 M25.469 137.700 C 24.571 139.853,23.909 142.042,24.099 142.232 C 24.197 142.331,24.742 141.059,25.309 139.406 C 26.358 136.346,26.452 135.343,25.469 137.700 M252.800 140.200 C 253.995 141.410,255.063 142.400,255.173 142.400 C 255.283 142.400,254.395 141.410,253.200 140.200 C 252.005 138.990,250.937 138.000,250.827 138.000 C 250.717 138.000,251.605 138.990,252.800 140.200 M10.375 141.662 C 9.032 146.135,6.796 155.329,7.000 155.533 C 7.219 155.752,7.279 155.557,8.398 151.000 C 8.884 149.020,9.814 145.536,10.465 143.257 C 11.116 140.979,11.560 139.027,11.452 138.919 C 11.345 138.811,10.860 140.046,10.375 141.662 M22.629 146.229 C 22.481 146.815,22.438 147.372,22.532 147.466 C 22.627 147.560,22.824 147.158,22.971 146.571 C 23.119 145.985,23.162 145.428,23.068 145.334 C 22.973 145.240,22.776 145.642,22.629 146.229 M197.983 150.100 C 198.964 151.145,199.819 152.000,199.883 152.000 C 200.184 152.000,199.866 151.641,198.100 149.983 L 196.200 148.200 197.983 150.100 M380.443 149.000 C 380.426 149.220,380.861 150.930,381.409 152.800 C 381.958 154.670,382.313 155.570,382.198 154.800 C 381.967 153.246,380.490 148.368,380.443 149.000 M144.400 153.400 C 142.761 155.050,141.510 156.400,141.620 156.400 C 141.730 156.400,143.161 155.050,144.800 153.400 C 146.439 151.750,147.690 150.400,147.580 150.400 C 147.470 150.400,146.039 151.750,144.400 153.400 M266.383 153.700 C 268.041 155.466,268.400 155.784,268.400 155.483 C 268.400 155.419,267.545 154.564,266.500 153.583 L 264.600 151.800 266.383 153.700 M394.444 154.227 C 394.420 154.462,395.104 158.422,395.966 163.027 C 396.827 167.632,397.828 174.280,398.191 177.800 C 399.206 187.635,399.593 190.329,399.342 185.800 C 398.828 176.548,394.813 150.666,394.444 154.227 M203.983 156.100 C 204.964 157.145,205.819 158.000,205.883 158.000 C 206.184 158.000,205.866 157.641,204.100 155.983 L 202.200 154.200 203.983 156.100 M138.800 159.000 C 137.828 159.990,137.123 160.800,137.233 160.800 C 137.343 160.800,138.228 159.990,139.200 159.000 C 140.172 158.010,140.877 157.200,140.767 157.200 C 140.657 157.200,139.772 158.010,138.800 159.000 M272.400 159.800 C 273.595 161.010,274.663 162.000,274.773 162.000 C 274.883 162.000,273.995 161.010,272.800 159.800 C 271.605 158.590,270.537 157.600,270.427 157.600 C 270.317 157.600,271.205 158.590,272.400 159.800 M18.849 161.060 C 18.253 163.339,17.194 169.189,17.241 169.944 C 17.263 170.305,17.778 168.170,18.384 165.200 C 19.446 159.998,19.686 157.864,18.849 161.060 M213.594 165.700 C 218.606 170.809,219.200 171.381,219.200 171.094 C 219.200 171.036,216.725 168.561,213.700 165.594 L 208.200 160.200 213.594 165.700 M132.400 165.400 C 131.428 166.390,130.723 167.200,130.833 167.200 C 130.943 167.200,131.828 166.390,132.800 165.400 C 133.772 164.410,134.477 163.600,134.367 163.600 C 134.257 163.600,133.372 164.410,132.400 165.400 M4.660 165.702 C 1.124 179.791,0.877 216.835,4.215 232.400 C 4.521 233.830,4.685 234.280,4.579 233.400 C 1.346 206.651,1.429 185.241,4.836 167.035 C 5.214 165.018,5.082 164.021,4.660 165.702 M126.800 171.000 C 125.161 172.650,123.910 174.000,124.020 174.000 C 124.130 174.000,125.561 172.650,127.200 171.000 C 128.839 169.350,130.090 168.000,129.980 168.000 C 129.870 168.000,128.439 169.350,126.800 171.000 M285.600 173.000 C 286.795 174.210,287.863 175.200,287.973 175.200 C 288.083 175.200,287.195 174.210,286.000 173.000 C 284.805 171.790,283.737 170.800,283.627 170.800 C 283.517 170.800,284.405 171.790,285.600 173.000 M227.000 179.200 C 229.854 182.060,232.278 184.400,232.388 184.400 C 232.498 184.400,230.254 182.060,227.400 179.200 C 224.546 176.340,222.122 174.000,222.012 174.000 C 221.902 174.000,224.146 176.340,227.000 179.200 M119.200 178.600 C 118.228 179.590,117.523 180.400,117.633 180.400 C 117.743 180.400,118.628 179.590,119.600 178.600 C 120.572 177.610,121.277 176.800,121.167 176.800 C 121.057 176.800,120.172 177.610,119.200 178.600 M291.400 178.800 C 292.259 179.680,293.052 180.400,293.162 180.400 C 293.272 180.400,292.659 179.680,291.800 178.800 C 290.941 177.920,290.148 177.200,290.038 177.200 C 289.928 177.200,290.541 177.920,291.400 178.800 M386.582 181.464 C 387.540 188.066,387.706 201.363,387.009 215.600 C 386.847 218.921,386.851 218.939,387.185 216.400 C 388.230 208.450,387.963 184.970,386.788 181.385 L 386.399 180.200 386.582 181.464 M111.600 186.200 C 109.961 187.850,108.710 189.200,108.820 189.200 C 108.930 189.200,110.361 187.850,112.000 186.200 C 113.639 184.550,114.890 183.200,114.780 183.200 C 114.670 183.200,113.239 184.550,111.600 186.200 M15.293 186.400 C 15.293 187.170,15.375 187.485,15.476 187.100 C 15.576 186.715,15.576 186.085,15.476 185.700 C 15.375 185.315,15.293 185.630,15.293 186.400 M236.783 188.900 C 238.441 190.666,238.800 190.984,238.800 190.683 C 238.800 190.619,237.945 189.764,236.900 188.783 L 235.000 187.000 236.783 188.900 M14.937 195.400 C 14.939 197.160,15.009 197.830,15.093 196.889 C 15.178 195.949,15.177 194.509,15.091 193.689 C 15.005 192.870,14.936 193.640,14.937 195.400 M244.391 196.497 L 247.375 199.595 245.393 201.697 L 243.410 203.800 245.601 201.699 L 247.792 199.598 244.599 196.499 L 241.407 193.400 244.391 196.497 M142.200 203.200 C 144.171 205.180,145.873 206.800,145.983 206.800 C 146.093 206.800,144.571 205.180,142.600 203.200 C 140.629 201.220,138.927 199.600,138.817 199.600 C 138.707 199.600,140.229 201.220,142.200 203.200 M14.937 205.400 C 14.939 207.160,15.009 207.830,15.093 206.889 C 15.178 205.949,15.177 204.509,15.091 203.689 C 15.005 202.870,14.936 203.640,14.937 205.400 M236.395 210.700 L 230.200 217.000 236.500 210.805 C 239.965 207.398,242.800 204.563,242.800 204.505 C 242.800 204.219,242.151 204.847,236.395 210.700 M149.600 210.600 C 151.017 212.030,152.267 213.200,152.377 213.200 C 152.487 213.200,151.417 212.030,150.000 210.600 C 148.583 209.170,147.333 208.000,147.223 208.000 C 147.113 208.000,148.183 209.170,149.600 210.600 M399.016 213.677 C 398.524 219.702,397.217 230.365,396.633 233.106 C 395.521 238.333,394.698 243.231,394.897 243.431 C 395.175 243.708,397.439 231.641,398.168 226.000 C 398.930 220.100,399.718 210.785,399.475 210.542 C 399.372 210.438,399.165 211.849,399.016 213.677 M156.200 217.200 C 157.728 218.740,159.069 220.000,159.179 220.000 C 159.289 220.000,158.128 218.740,156.600 217.200 C 155.072 215.660,153.731 214.400,153.621 214.400 C 153.511 214.400,154.672 215.660,156.200 217.200 M219.997 227.100 L 210.600 236.600 220.100 227.203 C 228.928 218.471,229.780 217.600,229.497 217.600 C 229.440 217.600,225.165 221.875,219.997 227.100 M162.800 223.800 C 164.217 225.230,165.467 226.400,165.577 226.400 C 165.687 226.400,164.617 225.230,163.200 223.800 C 161.783 222.370,160.533 221.200,160.423 221.200 C 160.313 221.200,161.383 222.370,162.800 223.800 M168.000 229.000 C 168.746 229.770,169.447 230.400,169.557 230.400 C 169.667 230.400,169.146 229.770,168.400 229.000 C 167.654 228.230,166.953 227.600,166.843 227.600 C 166.733 227.600,167.254 228.230,168.000 229.000 M17.247 230.880 C 17.175 231.930,18.818 240.111,19.238 240.794 C 19.489 241.202,19.520 241.009,19.331 240.200 C 19.176 239.540,18.655 237.020,18.172 234.600 C 17.688 232.180,17.272 230.506,17.247 230.880 M203.595 243.500 L 197.400 249.800 203.700 243.605 C 209.553 237.849,210.181 237.200,209.895 237.200 C 209.837 237.200,207.002 240.035,203.595 243.500 M381.446 247.646 C 380.849 249.872,380.433 251.766,380.521 251.855 C 380.610 251.943,381.171 250.195,381.769 247.969 C 382.367 245.744,382.783 243.850,382.694 243.761 C 382.605 243.671,382.043 245.420,381.446 247.646 M6.663 245.000 C 7.656 249.930,10.737 260.996,11.034 260.699 C 11.132 260.602,10.859 259.369,10.429 257.961 C 9.998 256.552,9.092 253.150,8.414 250.400 C 7.263 245.729,6.067 242.038,6.663 245.000 M394.222 245.422 C 394.072 246.225,394.028 246.962,394.126 247.060 C 394.224 247.157,394.427 246.581,394.578 245.778 C 394.728 244.975,394.772 244.238,394.674 244.140 C 394.576 244.043,394.373 244.619,394.222 245.422 M391.255 256.455 C 390.541 258.894,390.031 260.964,390.123 261.056 C 390.215 261.148,390.873 259.226,391.586 256.786 C 392.299 254.346,392.809 252.276,392.719 252.185 C 392.628 252.095,391.970 254.016,391.255 256.455 M23.620 257.430 C 23.594 257.999,25.425 263.366,25.958 264.282 C 26.652 265.474,26.464 264.779,25.020 260.800 C 24.261 258.710,23.631 257.193,23.620 257.430 M389.600 261.636 C 389.600 261.730,389.056 263.406,388.391 265.361 C 387.726 267.316,387.256 268.990,387.347 269.081 C 387.439 269.172,388.071 267.584,388.752 265.552 C 389.433 263.520,389.903 261.770,389.796 261.662 C 389.688 261.555,389.600 261.543,389.600 261.636 M374.824 268.097 C 373.186 272.246,372.996 272.863,373.754 271.563 C 374.509 270.269,376.460 265.127,376.269 264.936 C 376.191 264.858,375.541 266.280,374.824 268.097 M13.829 269.200 C 14.226 270.684,17.113 277.931,17.621 278.719 C 18.177 279.581,18.075 279.272,15.924 273.603 C 14.313 269.359,13.305 267.239,13.829 269.200 M385.603 272.904 C 383.341 278.471,380.843 283.982,378.336 288.937 C 377.018 291.542,376.012 293.745,376.100 293.834 C 376.189 293.922,377.086 292.421,378.094 290.497 C 381.159 284.648,387.456 270.123,387.087 269.754 C 387.007 269.674,386.339 271.092,385.603 272.904 M30.012 274.463 C 29.992 274.906,32.353 280.000,32.578 280.000 C 32.695 280.000,32.356 279.018,31.825 277.818 C 30.759 275.407,30.031 274.060,30.012 274.463 M368.485 282.615 C 367.561 284.477,366.893 286.000,366.998 286.000 C 367.265 286.000,370.485 279.551,370.307 279.374 C 370.228 279.295,369.408 280.753,368.485 282.615 M20.137 284.500 C 20.933 286.391,25.155 294.644,25.179 294.356 C 25.210 293.988,19.980 283.200,19.771 283.200 C 19.671 283.200,19.836 283.785,20.137 284.500 M34.400 283.789 C 34.400 284.252,38.385 291.723,38.887 292.200 C 39.118 292.420,38.264 290.620,36.989 288.200 C 34.490 283.457,34.400 283.304,34.400 283.789 M363.520 291.934 C 362.706 293.400,361.565 295.410,360.986 296.400 C 360.407 297.390,360.263 297.794,360.666 297.299 C 361.663 296.074,365.344 289.611,365.153 289.421 C 365.069 289.337,364.334 290.468,363.520 291.934 M374.544 296.300 C 373.944 297.345,372.434 299.916,371.187 302.014 C 368.487 306.557,367.917 307.600,368.136 307.600 C 368.316 307.600,372.714 300.374,374.771 296.700 C 375.479 295.435,375.963 294.400,375.846 294.400 C 375.729 294.400,375.143 295.255,374.544 296.300 M27.582 299.000 C 29.380 302.288,32.438 307.200,32.687 307.200 C 32.800 307.200,32.627 306.795,32.304 306.300 C 31.981 305.805,30.683 303.600,29.420 301.400 C 26.902 297.013,25.481 295.158,27.582 299.000 M42.839 299.100 C 44.074 301.149,46.096 304.000,46.314 304.000 C 46.494 304.000,46.191 303.507,43.675 299.700 C 42.080 297.288,41.492 296.865,42.839 299.100 M355.673 304.700 C 354.346 306.679,354.066 307.255,354.897 306.294 C 356.097 304.907,358.204 301.600,357.887 301.600 C 357.812 301.600,356.816 302.995,355.673 304.700 M33.047 308.100 C 34.013 309.741,37.259 314.400,37.436 314.400 C 37.702 314.400,37.498 314.057,35.117 310.500 C 34.049 308.905,33.080 307.600,32.964 307.600 C 32.848 307.600,32.885 307.825,33.047 308.100 M49.843 309.524 C 50.259 310.252,51.040 311.242,51.578 311.724 C 52.298 312.369,52.200 312.125,51.207 310.800 C 49.368 308.347,48.943 307.949,49.843 309.524 M366.321 309.900 C 365.989 310.285,364.938 311.770,363.985 313.200 C 363.032 314.630,360.292 318.410,357.894 321.600 C 355.497 324.790,354.111 326.770,354.814 326.000 C 356.464 324.192,362.722 315.873,365.256 312.117 C 367.163 309.290,367.563 308.459,366.321 309.900 M348.254 314.800 C 346.346 317.220,344.866 319.200,344.967 319.200 C 345.156 319.200,349.020 314.502,350.971 311.900 C 353.429 308.621,351.516 310.662,348.254 314.800 M54.994 316.200 C 56.329 318.057,58.800 320.903,58.800 320.584 C 58.800 320.353,55.019 315.685,54.277 315.000 C 54.039 314.780,54.362 315.320,54.994 316.200 M40.457 318.800 C 43.534 323.560,53.155 334.779,60.188 341.810 C 66.810 348.429,81.600 361.173,81.600 360.259 C 81.600 360.153,80.115 358.905,78.300 357.485 C 67.066 348.697,54.770 336.447,45.625 324.932 C 43.383 322.109,41.100 319.260,40.550 318.600 L 39.551 317.400 40.457 318.800 M341.963 322.500 C 340.559 324.095,339.728 325.149,340.115 324.843 C 340.957 324.177,344.958 319.600,344.698 319.600 C 344.598 319.600,343.368 320.905,341.963 322.500 M60.038 322.244 C 60.950 323.613,63.922 326.826,65.105 327.721 C 65.976 328.381,63.887 326.023,59.858 321.800 C 59.648 321.580,59.729 321.780,60.038 322.244 M332.795 332.284 C 327.747 337.410,327.591 337.603,331.583 333.784 C 335.983 329.576,339.062 326.400,338.741 326.400 C 338.658 326.400,335.982 329.048,332.795 332.284 M351.777 329.300 C 349.154 332.105,347.772 333.739,348.255 333.466 C 348.762 333.179,353.774 327.600,353.524 327.600 C 353.438 327.600,352.651 328.365,351.777 329.300 M68.600 331.600 C 70.128 333.140,71.469 334.400,71.579 334.400 C 71.689 334.400,70.528 333.140,69.000 331.600 C 67.472 330.060,66.131 328.800,66.021 328.800 C 65.911 328.800,67.072 330.060,68.600 331.600 M340.995 340.711 C 330.908 350.627,322.974 357.263,313.645 363.586 C 310.984 365.389,308.693 367.049,308.554 367.274 C 307.364 369.201,324.297 356.474,332.400 349.353 C 336.294 345.930,348.435 333.987,347.995 334.011 C 347.888 334.017,344.738 337.032,340.995 340.711 M74.034 336.826 C 77.088 339.798,81.468 343.603,83.400 344.964 L 85.000 346.091 83.405 344.746 C 82.528 344.006,80.098 341.882,78.005 340.027 C 72.635 335.267,71.449 334.311,74.034 336.826 M323.000 341.461 C 321.460 342.907,320.920 343.546,321.800 342.880 C 323.328 341.725,326.353 338.783,325.978 338.816 C 325.880 338.824,324.540 340.015,323.000 341.461 M318.000 345.654 L 316.200 347.285 317.894 346.013 C 319.368 344.907,320.314 343.974,319.924 344.012 C 319.856 344.019,318.990 344.758,318.000 345.654 M312.400 349.849 C 308.855 352.588,308.194 353.155,309.200 352.594 C 311.022 351.579,316.550 347.154,315.924 347.211 C 315.856 347.218,314.270 348.405,312.400 349.849 M87.800 348.384 C 88.578 349.269,92.000 351.793,92.000 351.483 C 92.000 351.398,90.875 350.461,89.500 349.402 C 88.125 348.342,87.360 347.884,87.800 348.384 M95.200 353.764 C 95.200 353.959,100.228 357.435,101.600 358.188 C 102.782 358.837,101.399 357.732,98.800 355.951 C 95.500 353.689,95.200 353.507,95.200 353.764 M304.931 355.165 C 301.434 357.694,300.978 358.047,301.600 357.749 C 302.693 357.224,306.746 354.411,306.999 354.002 C 307.351 353.433,307.240 353.495,304.931 355.165 M107.000 361.395 C 107.905 362.150,111.218 363.901,110.600 363.297 C 110.380 363.082,109.300 362.416,108.200 361.817 C 107.100 361.217,106.560 361.028,107.000 361.395 M292.867 362.587 C 289.178 364.783,288.609 365.354,291.871 363.587 C 294.154 362.349,296.470 360.803,296.000 360.829 C 295.890 360.835,294.480 361.626,292.867 362.587 M84.800 362.563 C 84.800 362.749,90.514 366.808,91.600 367.394 C 92.641 367.955,91.537 367.013,89.200 365.345 C 86.381 363.333,84.800 362.334,84.800 362.563 M112.800 364.598 C 112.800 364.867,116.849 366.884,117.029 366.705 C 117.111 366.623,116.193 366.073,114.989 365.482 C 113.785 364.892,112.800 364.494,112.800 364.598 M118.400 367.398 C 118.400 367.666,123.249 370.085,123.428 369.906 C 123.508 369.825,122.410 369.185,120.987 368.483 C 119.564 367.782,118.400 367.293,118.400 367.398 M280.600 368.985 C 278.620 369.966,277.153 370.776,277.341 370.784 C 277.846 370.808,284.400 367.690,284.400 367.426 C 284.400 367.095,284.496 367.056,280.600 368.985 M93.600 368.513 C 93.600 368.625,94.995 369.579,96.700 370.632 C 98.405 371.686,100.243 372.829,100.785 373.174 C 101.376 373.550,101.648 373.603,101.465 373.306 C 101.297 373.034,99.864 372.059,98.280 371.140 C 96.696 370.220,94.995 369.206,94.500 368.888 C 94.005 368.569,93.600 368.400,93.600 368.513 M304.200 369.692 C 298.131 373.444,296.400 374.555,296.400 374.699 C 296.400 374.787,297.435 374.270,298.700 373.551 C 302.135 371.599,307.057 368.411,306.600 368.435 C 306.380 368.446,305.300 369.012,304.200 369.692 M133.036 373.987 C 133.493 374.433,138.871 376.463,139.069 376.264 C 139.150 376.184,137.743 375.558,135.943 374.875 C 134.144 374.191,132.835 373.791,133.036 373.987 M267.084 374.673 C 265.591 375.239,264.442 375.776,264.532 375.865 C 264.739 376.072,269.273 374.418,269.780 373.951 C 270.302 373.469,270.170 373.504,267.084 374.673 M105.200 375.362 C 105.200 375.583,112.084 379.251,114.500 380.317 C 118.229 381.962,116.308 380.759,110.800 378.000 C 107.720 376.457,105.200 375.270,105.200 375.362 M288.258 378.445 C 286.090 379.548,284.406 380.540,284.516 380.650 C 284.733 380.866,292.800 376.919,292.800 376.596 C 292.800 376.204,292.129 376.477,288.258 378.445 M153.865 380.794 C 154.289 381.178,159.980 382.554,160.207 382.327 C 160.300 382.234,158.836 381.783,156.953 381.324 C 155.071 380.866,153.681 380.627,153.865 380.794 M244.400 381.600 C 242.090 382.218,240.418 382.741,240.685 382.762 C 241.566 382.831,248.192 381.168,248.580 380.780 C 248.789 380.571,248.879 380.417,248.780 380.438 C 248.681 380.459,246.710 380.982,244.400 381.600 M120.055 382.764 C 120.770 383.228,131.981 387.733,133.600 388.207 C 135.853 388.866,133.832 387.952,127.400 385.403 C 119.777 382.382,119.080 382.132,120.055 382.764 M274.292 384.782 C 271.702 385.859,268.676 387.043,267.566 387.411 C 266.456 387.780,265.625 388.159,265.720 388.253 C 266.004 388.537,278.909 383.625,279.542 382.992 C 280.036 382.497,278.631 382.977,274.292 384.782 M193.505 386.683 C 194.002 386.779,194.722 386.775,195.105 386.675 C 195.487 386.575,195.080 386.496,194.200 386.501 C 193.320 386.505,193.007 386.587,193.505 386.683 M207.505 386.683 C 208.002 386.779,208.722 386.775,209.105 386.675 C 209.487 386.575,209.080 386.496,208.200 386.501 C 207.320 386.505,207.007 386.587,207.505 386.683 M141.200 390.671 C 145.385 392.055,156.431 394.858,156.961 394.670 C 157.203 394.585,156.320 394.287,155.000 394.009 C 153.680 393.730,149.498 392.624,145.707 391.551 C 138.277 389.448,136.386 389.079,141.200 390.671 M254.424 391.520 C 251.686 392.306,249.631 393.010,249.855 393.085 C 250.266 393.222,260.001 390.532,260.347 390.186 C 260.733 389.800,259.250 390.134,254.424 391.520 M244.600 394.045 C 243.720 394.245,241.685 394.698,240.078 395.050 C 238.471 395.402,237.231 395.764,237.322 395.855 C 237.501 396.035,247.292 394.037,247.567 393.765 C 247.828 393.506,246.354 393.645,244.600 394.045 M159.600 395.255 C 159.600 395.445,160.050 395.600,160.600 395.600 C 161.150 395.600,161.600 395.531,161.600 395.447 C 161.600 395.362,161.150 395.207,160.600 395.102 C 160.050 394.997,159.600 395.066,159.600 395.255 M228.800 397.027 C 216.792 398.919,190.577 399.351,177.800 397.868 C 169.150 396.864,167.842 396.769,171.400 397.406 C 180.838 399.095,204.723 399.819,217.000 398.789 C 222.235 398.350,233.678 396.856,233.958 396.575 C 234.238 396.295,232.455 396.451,228.800 397.027 " stroke="none" fill="#04846c" fill-rule="evenodd"></path></g></svg>